<svg width="36" height="40" viewBox="0 0 36 40" fill="none" xmlns="http://www.w3.org/2000/svg">
<path fill-rule="evenodd" clip-rule="evenodd" d="M18 10C20.2091 10 22 8.20914 22 6C22 3.79086 20.2091 2 18 2C15.7909 2 14 3.79086 14 6V6C14 6.64879 13.7584 7.31659 13.198 7.64349L10.1797 9.40417C9.39191 9.86368 8.40717 9.67704 7.56834 9.31917C7.08676 9.11371 6.55666 9 6 9C3.79086 9 2 10.7909 2 13C2 15.2091 3.79086 17 6 17C6.55666 17 7.08676 16.8863 7.56834 16.6808C8.40717 16.323 9.39191 16.1363 10.1797 16.5958L13.198 18.3565C13.7584 18.6834 14 19.3512 14 20V20C14 22.2091 15.7909 24 18 24C18.5567 24 19.0868 23.8863 19.5683 23.6808C20.4072 23.323 21.3919 23.1363 22.1797 23.5958L25.198 25.3565C25.7584 25.6834 26 26.3512 26 27V27C26 29.2091 27.7909 31 30 31C32.2091 31 34 29.2091 34 27C34 24.7909 32.2091 23 30 23C29.4433 23 28.9132 23.1137 28.4317 23.3192C27.5928 23.677 26.6081 23.8637 25.8203 23.4042L22.802 21.6435C22.2416 21.3166 22 20.6488 22 20V20V20C22 19.3512 22.2416 18.6834 22.802 18.3565L25.8204 16.5958C26.6081 16.1363 27.5928 16.323 28.4317 16.6808C28.9132 16.8863 29.4433 17 30 17C32.2091 17 34 15.2091 34 13C34 10.7909 32.2091 9 30 9C27.7909 9 26 10.7909 26 13V13C26 13.6488 25.7584 14.3166 25.198 14.6435L22.1797 16.4042C21.3919 16.8637 20.4072 16.677 19.5683 16.3192C19.0868 16.1137 18.5567 16 18 16C17.4433 16 16.9132 16.1137 16.4317 16.3192C15.5928 16.677 14.6081 16.8637 13.8203 16.4042L10.802 14.6435C10.2416 14.3166 10 13.6488 10 13V13V13C10 12.3512 10.2416 11.6834 10.802 11.3565L13.8204 9.59583C14.6081 9.13632 15.5928 9.32296 16.4317 9.68083C16.9132 9.88629 17.4433 10 18 10Z" fill="black"/>
</svg>
